<svg width="256" height="256" viewBox="0 0 256 256" fill="none" xmlns="http://www.w3.org/2000/svg">
<g clip-path="url(#clip0_1498_2)">
<path d="M200.537 21.4191C204.482 21.4192 208.17 21.4016 211.858 21.4241C215.693 21.4475 219.052 24.6999 219.054 28.4762C219.068 64.0676 219.061 99.659 219.058 135.25C219.058 135.591 219.019 135.932 218.973 136.684C218.081 136.684 217.184 136.684 216.286 136.684C207.881 136.684 199.475 136.618 191.071 136.706C184.566 136.774 178.454 138.035 173.048 142.147C168.312 145.751 166.003 150.812 163.462 155.86C161.431 159.894 159.282 163.901 156.777 167.646C156.022 168.774 153.9 169.522 152.397 169.535C136.446 169.668 120.493 169.612 104.54 169.621C101.193 169.623 99.244 167.515 97.8753 164.914C95.6043 160.599 93.5374 156.173 91.4833 151.748C87.9452 144.127 82.0362 139.412 73.9385 137.495C71.5739 136.935 69.0777 136.742 66.6387 136.719C57.2071 136.633 47.7742 136.684 37.9232 136.684C37.9232 135.709 37.9232 134.813 37.9232 133.916C37.9232 117.878 37.9405 101.841 37.9063 85.8031C37.9005 83.105 38.7852 80.961 40.727 79.0277C59.0819 60.7534 77.3953 42.4376 95.6773 24.0904C97.5477 22.2134 99.6546 21.4047 102.248 21.4063C134.925 21.4259 167.602 21.4191 200.537 21.4191Z" fill="#1AD3BB"/>
<path d="M135.168 235.417C99.7503 235.417 64.5895 235.417 29.4286 235.416C24.3771 235.416 21.4384 232.452 21.4382 227.359C21.4374 205.27 21.437 183.181 21.4386 161.093C21.439 156.224 24.4613 153.216 29.3514 153.215C42.5581 153.213 55.7659 153.308 68.971 153.157C72.8483 153.113 75.2522 154.957 76.8472 158.048C79.2727 162.747 81.2415 167.688 83.7782 172.322C88.096 180.21 94.626 185.283 103.884 185.522C119.194 185.917 134.515 186.06 149.831 186.037C157.232 186.025 164.19 183.839 169.042 178.012C172.05 174.4 173.957 169.872 176.341 165.744C178.39 162.195 180.211 158.49 182.561 155.154C183.35 154.033 185.447 153.312 186.956 153.297C200.847 153.158 214.741 153.196 228.633 153.228C232.119 153.236 235.501 156.592 235.505 160.064C235.531 182.923 235.507 205.783 235.531 228.642C235.535 232.055 231.275 235.533 228.043 235.5C210.808 235.323 193.569 235.417 176.332 235.417C162.696 235.417 149.061 235.417 135.168 235.417Z" fill="#985184"/>
<path d="M136.331 125.558C131.04 125.558 126.219 124.534 121.867 122.486C117.515 120.353 114.059 117.494 111.499 113.91C108.939 110.241 107.659 106.145 107.659 101.622V84.5982C107.659 79.8196 108.982 75.5102 111.627 71.6702C114.272 67.8302 117.771 64.8009 122.123 62.5822C126.56 60.3636 131.339 59.2542 136.459 59.2542C141.494 59.2542 146.102 60.3209 150.283 62.4542C154.55 64.5022 157.92 67.4036 160.395 71.1582C162.87 74.8276 164.107 79.0516 164.107 83.8302V90.9982C164.107 92.8756 163.382 94.4542 161.931 95.7342C160.566 97.0142 158.816 97.6542 156.683 97.6542H123.147V100.47C123.147 104.14 124.256 107.126 126.475 109.43C128.694 111.734 132.022 112.886 136.459 112.886C140.726 112.886 143.883 111.948 145.931 110.07C148.064 108.193 149.131 105.761 149.131 102.774C150.667 102.604 151.734 102.518 152.331 102.518C155.488 102.518 157.963 103.244 159.755 104.694C161.547 106.06 162.443 108.022 162.443 110.582C162.443 113.057 161.291 115.446 158.987 117.75C156.683 120.054 153.526 121.932 149.515 123.382C145.504 124.833 141.11 125.558 136.331 125.558ZM149.643 86.2622V83.8302C149.643 80.2462 148.406 77.3449 145.931 75.1262C143.456 72.9076 140.256 71.7982 136.331 71.7982C132.406 71.7982 129.206 72.9076 126.731 75.1262C124.342 77.2596 123.147 80.1609 123.147 83.8302V86.2622H149.643Z" fill="white"/>
</g>
<defs>
<clipPath id="clip0_1498_2">
<rect width="248" height="248" fill="white" transform="translate(4 3)"/>
</clipPath>
</defs>
</svg>
